<svg width="27" height="9" viewBox="0 0 27 9" fill="none" xmlns="http://www.w3.org/2000/svg">
<path d="M1.64401 8.39999H1.12355e-05V-6.67572e-06H1.64401V3.38399H3.56401V-6.67572e-06H5.20801V8.39999H3.56401V4.91999H1.64401V8.39999ZM10.2753 -6.67572e-06C10.8353 0.455994 11.2513 1.06799 11.5233 1.83599C11.7953 2.60399 11.9313 3.39599 11.9313 4.21199C11.9313 5.01999 11.7993 5.78799 11.5353 6.51599C11.2713 7.24399 10.8513 7.87199 10.2753 8.39999H7.80329C7.22729 7.87199 6.80729 7.24399 6.54329 6.51599C6.27929 5.78799 6.14729 5.01999 6.14729 4.21199C6.14729 3.39599 6.28329 2.60399 6.55529 1.83599C6.82729 1.06799 7.24329 0.455994 7.80329 -6.67572e-06H10.2753ZM8.60729 7.00799H9.47129C9.67129 6.77599 9.83929 6.39999 9.97529 5.87999C10.1193 5.35199 10.1913 4.79599 10.1913 4.21199C10.1913 3.62799 10.1233 3.07999 9.98729 2.56799C9.85129 2.04799 9.68329 1.67199 9.48329 1.43999H8.60729C8.40729 1.67199 8.23529 2.04799 8.09129 2.56799C7.95529 3.07999 7.88729 3.62799 7.88729 4.21199C7.88729 4.79599 7.95529 5.35199 8.09129 5.87999C8.23529 6.39999 8.40729 6.77599 8.60729 7.00799ZM13.4594 -6.67572e-06H16.3394V1.43999H14.0354L13.9994 1.51199L15.9194 5.01599C16.3114 5.71999 16.5074 6.25599 16.5074 6.62399C16.5074 7.43199 16.2394 8.02399 15.7034 8.39999H12.5234V7.00799H15.0074L15.0434 6.93599L12.8834 3.05999C12.5714 2.49999 12.4154 2.04399 12.4154 1.69199C12.4154 0.859993 12.7634 0.295993 13.4594 -6.67572e-06Z" fill="#EAEAEA"/>
<path d="M22.8416 8.39999L22.5896 7.06799H20.6936L20.4416 8.39999H18.8096L20.4296 -6.67572e-06H22.9136L24.4496 8.39999H22.8416ZM21.6176 1.55999L21.1496 4.35599L20.8856 5.78399H22.3856L22.1096 4.35599L21.6416 1.55999H21.6176ZM25.1484 8.39999V-6.67572e-06H26.7924V8.39999H25.1484Z" fill="#6B9CEA"/>
</svg>
